<svg xmlns="http://www.w3.org/2000/svg" width="1240" height="1240"><path d="M604 56.633C490.249 60.732 385.861 95.49 294.948 159.537 173.484 245.105 89.177 378.697 64.626 524.5c-4.493 26.686-6.308 44.001-7.615 72.668-5.635 123.629 31.857 249.2 104.676 350.594 80.626 112.262 195.852 189.353 330.649 221.215 61.086 14.439 130.236 18.115 196.164 10.429 89.803-10.469 182.056-46.108 257-99.284 59.506-42.221 112.201-97.716 150.622-158.622 74.857-118.668 102.47-256.792 79.298-396.663-12.431-75.034-41.887-149.548-84.927-214.837C999.111 171.38 852.943 80.812 688 60.61c-23.767-2.911-62.582-4.749-84-3.977m206.5 183.473c-19.876 2.086-38.826 7.52-57.5 16.489-48.857 23.466-83.414 67.922-95.148 122.405-3.098 14.383-3.365 50.059-.49 65.5 8.22 44.153 34.14 84.748 70.691 110.71 22.701 16.125 48.067 26.133 76.947 30.358 15.407 2.254 42.979 1.504 57.5-1.565 53.934-11.396 98.449-45.511 122.009-93.503 20.217-41.184 23.581-87.895 9.481-131.664-4.084-12.678-15.568-35.387-23.431-46.336-36.92-51.405-97.778-78.931-160.059-72.394m11.275 64.453c-5.313 2.883-5.239 2.139-5.775 58.031l-.5 52.091-19.74-17.341c-17.646-15.5-20.118-17.34-23.296-17.34-6.503 0-11.144 7.269-8.348 13.074 1.672 3.471 59.091 52.51 62.479 53.36 3.921.985 9.279-1.889 10.941-5.866 2.184-5.228 2.184-125.908 0-131.136-2.349-5.623-10.013-7.992-15.761-4.873m-506.591 24.51c-5.775 1.137-10.753 4.354-14.289 9.235-6.321 8.726-5.895-10.923-5.895 271.878V868h185.364c114.254 0 187.305.368 190.425.96 11.792 2.236 22.14 10.089 27.418 20.806l3.293 6.687.618 30.524c.689 34.041 1.318 37.908 8.542 52.518 7.161 14.483 14.946 20.782 25.501 20.633 23.244-.327 43.893-15.003 52.94-37.628l2.399-6 .264-176.634.263-176.635-4.263-.639c-6.438-.966-23.01-6.108-34.504-10.707-11.83-4.733-28.465-13.986-40.405-22.476-10.82-7.693-30.717-27.571-38.695-38.659l-6.296-8.75H484.846l-2.923-2.923c-4.034-4.034-4.034-9.12 0-13.154l2.923-2.923h172.188l-2.367-4.75c-1.302-2.613-3.631-8.012-5.175-12l-2.808-7.25H484.846l-2.923-2.923c-4.034-4.034-4.034-9.12 0-13.154l2.923-2.923h78.184c63.995 0 78.093-.237 77.682-1.308-1.082-2.82-3.738-17.648-4.691-26.192-1.306-11.701-1.291-29.091.034-41.289 2.026-18.64 9.049-44.589 15.528-57.375 1.329-2.623 2.417-5.009 2.417-5.303 0-.899-334.209-.371-338.816.536m59.84 123.534c-11.922 3.204-22.094 11.713-27.798 23.255-3.652 7.388-3.726 7.769-3.724 19.09.001 10.929.175 11.92 3.222 18.379 3.89 8.247 12.651 17.258 20.427 21.01 21.679 10.461 47.896 1.618 58.342-19.679 5.559-11.334 6.267-24.72 1.886-35.669l-1.672-4.177-19.103 18.957c-20.66 20.501-22.753 22.249-26.577 22.196-4.083-.058-6.512-1.977-14.486-11.449-6.844-8.131-7.541-9.358-7.541-13.283 0-5.936 3.263-9.233 9.138-9.233 3.752 0 4.761.551 8.93 4.877l4.701 4.877 15.743-15.766c9.302-9.316 15.459-16.227 15.048-16.891-1.049-1.698-8.427-5.233-14.06-6.738-6.434-1.718-15.541-1.619-22.476.244m4.683 138.528c-13.484 1.881-26.649 11.731-32.829 24.563-6.065 12.592-4.989 30.375 2.55 42.135C357.65 670.654 371.151 678 386.5 678c24.854 0 43.6-18.675 43.6-43.435 0-7.735-1.978-16.678-4.207-19.024-.566-.596-8.577 6.646-21.152 19.119-13.181 13.076-21.217 20.309-23.04 20.74-4.343 1.028-7.396-1.117-15.879-11.158-6.811-8.061-7.822-9.756-7.822-13.115 0-4.926 3.016-8.852 7.438-9.681 4.149-.779 7.001.62 11.562 5.671l3.5 3.876 15.791-15.247c8.684-8.385 15.772-15.737 15.75-16.337-.049-1.3-8.103-5.745-13.041-7.198-5.296-1.558-12.841-1.981-19.293-1.08m101.748 11.324c-1.695 1.694-2.455 3.566-2.455 6.045s.76 4.351 2.455 6.045l2.454 2.455h229.245l3.04-3.04c2.542-2.542 2.939-3.566 2.424-6.25-.339-1.766-1.766-4.223-3.173-5.46l-2.557-2.25H483.909l-2.454 2.455m0 43c-1.695 1.694-2.455 3.566-2.455 6.045s.76 4.351 2.455 6.045l2.454 2.455h229.245l3.04-3.04c2.542-2.542 2.939-3.566 2.424-6.25-.339-1.766-1.766-4.223-3.173-5.46l-2.557-2.25H483.909l-2.454 2.455m-106.431 86.148c-11.922 3.204-22.094 11.713-27.798 23.255-3.652 7.388-3.726 7.769-3.724 19.09.001 10.929.175 11.92 3.222 18.379 3.89 8.247 12.651 17.258 20.427 21.01 21.679 10.461 47.896 1.618 58.342-19.679 5.559-11.334 6.267-24.72 1.886-35.669l-1.672-4.177-19.103 18.957c-20.66 20.501-22.753 22.249-26.577 22.196-4.083-.058-6.512-1.977-14.486-11.449-6.844-8.131-7.541-9.358-7.541-13.283 0-5.936 3.263-9.233 9.138-9.233 3.752 0 4.761.551 8.93 4.877l4.701 4.877 15.743-15.766c9.302-9.316 15.459-16.227 15.048-16.891-1.049-1.698-8.427-5.233-14.06-6.738-6.434-1.718-15.541-1.619-22.476.244m106.431 10.852c-1.695 1.694-2.455 3.566-2.455 6.045s.76 4.351 2.455 6.045l2.454 2.455h229.245l3.04-3.04c2.542-2.542 2.939-3.566 2.424-6.25-.339-1.766-1.766-4.223-3.173-5.46l-2.557-2.25H483.909l-2.454 2.455m2.874 41.003c-6.011 2.614-7.122 8.903-2.406 13.619l2.923 2.923h113.942c112.658 0 113.971-.023 116.5-2.012 5.324-4.188 3.953-12.663-2.407-14.88-2.256-.786-35.454-1.097-114.28-1.069-92.179.033-111.641.274-114.272 1.419M246.83 891.027c-2.018 1.066-4.718 3.409-6 5.206-2.261 3.17-2.339 3.982-2.642 27.282-.354 27.163.525 33.884 5.911 45.225 4.294 9.042 15.843 20.684 24.901 25.103 13.323 6.498-1.285 6.123 238.5 6.114l218-.009-6.5-2.224c-18.913-6.472-32.397-21.702-36.496-41.224-1.045-4.98-1.474-13.69-1.487-30.185-.01-13.951-.442-24.306-1.084-26-1.516-4.003-4.805-7.289-9.433-9.425-3.849-1.776-11.864-1.845-212-1.824-203.846.022-208.073.061-211.67 1.961" fill="undefined" fill-rule="evenodd"/></svg>